<?xml version="1.0" encoding="UTF-8"?><svg id="Layer_1" xmlns="http://www.w3.org/2000/svg" viewBox="0 0 922.72 384.96"><defs><style>.cls-1{fill:#fff;}.cls-2{fill:#16b5bf;}.cls-3{fill:#fcb941;}.cls-4{fill:#f3922a;}.cls-5{fill:#f58b1f;}.cls-6{fill:#296276;}.cls-7{fill:#fde1b1;}</style></defs><path d="m496.77,333.69c2.21,0,3.94.8,5.17,2.41,1.24,1.6,1.85,3.86,1.85,6.75s-.63,5.17-1.88,6.79-2.99,2.43-5.21,2.43-3.99-.81-5.23-2.42h-.26l-.69,2.1h-2.82v-24.96h3.77v5.94c0,.44-.02,1.09-.06,1.96-.04.87-.07,1.42-.1,1.65h.16c1.2-1.76,2.96-2.65,5.29-2.65Zm-.98,3.08c-1.52,0-2.61.45-3.28,1.34-.67.89-1.01,2.39-1.03,4.48v.26c0,2.16.34,3.72,1.03,4.69.68.97,1.8,1.45,3.35,1.45,1.34,0,2.35-.53,3.04-1.59.69-1.06,1.03-2.59,1.03-4.59,0-4.03-1.38-6.05-4.14-6.05Z"/><path d="m508.76,334.01h4.11l3.61,10.06c.55,1.43.91,2.78,1.09,4.04h.13c.1-.59.27-1.3.53-2.14s1.61-4.83,4.07-11.96h4.07l-7.59,20.1c-1.38,3.69-3.68,5.53-6.9,5.53-.83,0-1.65-.09-2.44-.27v-2.98c.57.13,1.21.19,1.94.19,1.82,0,3.1-1.05,3.83-3.16l.66-1.67-7.12-17.74Z"/><path class="cls-5" d="m565.4,339.99c0,3.82-.95,6.79-2.86,8.9-1.91,2.12-4.61,3.18-8.11,3.18s-6.26-1.05-8.16-3.15c-1.9-2.1-2.85-5.09-2.85-8.96s.95-6.85,2.86-8.92c1.91-2.07,4.63-3.11,8.17-3.11s6.18,1.05,8.09,3.16,2.86,5.08,2.86,8.9Zm-17.9,0c0,2.89.58,5.08,1.75,6.57,1.17,1.49,2.89,2.24,5.18,2.24s4-.74,5.16-2.21c1.16-1.48,1.74-3.67,1.74-6.59s-.57-5.06-1.72-6.54c-1.15-1.49-2.86-2.23-5.14-2.23s-4.03.74-5.21,2.23c-1.17,1.49-1.76,3.67-1.76,6.54Z"/><path class="cls-5" d="m589.26,335.39c0,2.45-.8,4.33-2.41,5.63s-3.89,1.96-6.85,1.96h-2.44v8.78h-3.83v-23.45h6.75c2.93,0,5.13.6,6.59,1.8,1.46,1.2,2.19,2.96,2.19,5.29Zm-11.69,4.36h2.04c1.97,0,3.41-.34,4.33-1.03s1.38-1.75,1.38-3.21c0-1.35-.41-2.35-1.24-3.02-.82-.66-2.11-.99-3.85-.99h-2.66v8.25Z"/><path class="cls-5" d="m610.49,351.75h-13.27v-23.45h13.27v3.24h-9.43v6.38h8.84v3.21h-8.84v7.36h9.43v3.26Z"/><path class="cls-5" d="m638.39,351.75h-4.7l-11.53-18.69h-.13l.08,1.04c.15,1.99.22,3.81.22,5.45v12.19h-3.48v-23.45h4.65l11.5,18.59h.1c-.02-.25-.06-1.14-.13-2.69-.06-1.55-.1-2.75-.1-3.62v-12.29h3.51v23.45Z"/><path class="cls-5" d="m678.76,339.8c0,3.87-1.07,6.83-3.22,8.88-2.15,2.05-5.25,3.07-9.29,3.07h-6.56v-23.45h7.25c3.73,0,6.64,1.01,8.71,3.02s3.11,4.84,3.11,8.49Zm-4.04.13c0-5.62-2.62-8.42-7.88-8.42h-3.32v17.02h2.73c5.65,0,8.47-2.87,8.47-8.6Z"/><path class="cls-5" d="m701.63,351.75l-2.34-6.51h-8.97l-2.29,6.51h-4.04l8.78-23.55h4.17l8.78,23.55h-4.07Zm-3.35-9.82l-2.2-6.38c-.16-.43-.38-1.1-.67-2.02s-.48-1.59-.59-2.02c-.29,1.32-.71,2.75-1.27,4.32l-2.12,6.11h6.83Z"/><path class="cls-5" d="m720.19,351.75h-3.83v-20.17h-6.9v-3.29h17.63v3.29h-6.9v20.17Z"/><path class="cls-5" d="m748.52,351.75l-2.34-6.51h-8.97l-2.29,6.51h-4.04l8.78-23.55h4.17l8.78,23.55h-4.07Zm-3.35-9.82l-2.2-6.38c-.16-.43-.38-1.1-.67-2.02s-.48-1.59-.59-2.02c-.29,1.32-.71,2.75-1.27,4.32l-2.12,6.11h6.83Z"/><path class="cls-5" d="m792.44,351.75h-4.17l-3.98-13.99c-.17-.61-.38-1.49-.64-2.64-.26-1.15-.41-1.95-.46-2.4-.11.68-.28,1.57-.52,2.66s-.44,1.9-.6,2.44l-3.88,13.93h-4.17l-3.03-11.74-3.08-11.71h3.92l3.35,13.67c.52,2.19.9,4.13,1.12,5.81.12-.91.29-1.92.53-3.05s.45-2.03.64-2.73l3.82-13.7h3.8l3.92,13.77c.37,1.27.77,3.18,1.19,5.71.16-1.53.55-3.48,1.16-5.84l3.34-13.64h3.88l-6.11,23.45Z"/><path class="cls-5" d="m819.71,351.75l-2.34-6.51h-8.97l-2.29,6.51h-4.04l8.78-23.55h4.17l8.78,23.55h-4.07Zm-3.35-9.82l-2.2-6.38c-.16-.43-.38-1.1-.67-2.02s-.48-1.59-.59-2.02c-.29,1.32-.71,2.75-1.27,4.32l-2.12,6.11h6.83Z"/><path class="cls-5" d="m838.27,351.75h-3.83v-20.17h-6.9v-3.29h17.63v3.29h-6.9v20.17Z"/><path class="cls-5" d="m862.02,331.25c-2.2,0-3.94.78-5.2,2.34-1.26,1.56-1.89,3.72-1.89,6.47s.61,5.05,1.82,6.53c1.21,1.48,2.97,2.21,5.27,2.21.99,0,1.96-.1,2.89-.3.93-.2,1.9-.45,2.9-.76v3.29c-1.84.7-3.92,1.04-6.26,1.04-3.43,0-6.07-1.04-7.91-3.12-1.84-2.08-2.76-5.06-2.76-8.93,0-2.44.45-4.57,1.34-6.4.89-1.83,2.18-3.23,3.88-4.2,1.69-.97,3.67-1.46,5.95-1.46,2.4,0,4.61.5,6.64,1.51l-1.38,3.19c-.79-.37-1.63-.7-2.51-.99-.88-.28-1.81-.42-2.78-.42Z"/><path class="cls-5" d="m894.65,351.75h-3.85v-10.57h-10.81v10.57h-3.83v-23.45h3.83v9.59h10.81v-9.59h3.85v23.45Z"/><path class="cls-6" d="m95.97,177.03c-12.52,0-22.36,4.44-29.52,13.3-7.17,8.87-10.75,21.11-10.75,36.72s3.45,28.7,10.34,37.09c6.89,8.38,16.87,12.57,29.93,12.57,5.65,0,11.12-.56,16.4-1.69,5.28-1.12,10.78-2.57,16.49-4.33v18.68c-10.45,3.95-22.29,5.92-35.54,5.92-19.5,0-34.48-5.91-44.92-17.72-10.45-11.81-15.67-28.72-15.67-50.71,0-13.85,2.54-25.97,7.61-36.36,5.07-10.39,12.41-18.35,22.01-23.87,9.6-5.53,20.87-8.29,33.81-8.29,13.61,0,26.18,2.86,37.72,8.57l-7.84,18.13c-4.5-2.13-9.25-3.99-14.26-5.6-5.01-1.61-10.28-2.42-15.81-2.42Z"/><path class="cls-6" d="m360.58,293.48l-38.64-111.26h-.73c1.03,16.52,1.55,32.02,1.55,46.47v64.79h-19.77v-133.22h30.71l37,105.97h.55l38.09-105.97h30.8v133.22h-20.96v-65.88c0-6.62.17-15.25.5-25.88.33-10.63.62-17.07.87-19.32h-.73l-40,111.08h-19.23Z"/><path class="cls-6" d="m563.42,200.54c0,13.91-4.56,24.57-13.67,31.98-9.11,7.41-22.08,11.12-38.91,11.12h-13.85v49.84h-21.78v-133.22h38.36c16.64,0,29.11,3.4,37.41,10.21,8.29,6.8,12.44,16.83,12.44,30.07Zm-66.43,24.79h11.57c11.18,0,19.38-1.94,24.6-5.83,5.22-3.89,7.84-9.96,7.84-18.22,0-7.65-2.34-13.36-7.02-17.13-4.68-3.77-11.97-5.65-21.87-5.65h-15.13v46.84Z"/><path class="cls-6" d="m672.67,293.48l-13.3-37h-50.94l-13.03,37h-22.96l49.84-133.77h23.69l49.84,133.77h-23.14Zm-19.04-55.77l-12.48-36.27c-.91-2.43-2.17-6.26-3.78-11.48-1.61-5.22-2.72-9.05-3.33-11.48-1.64,7.47-4.04,15.64-7.2,24.51l-12.03,34.72h38.82Z"/><path class="cls-6" d="m790.21,257.31c0,11.85-4.28,21.14-12.85,27.88-8.56,6.74-20.38,10.11-35.45,10.11s-27.4-2.34-37-7.02v-20.59c6.07,2.86,12.53,5.1,19.36,6.74s13.2,2.46,19.09,2.46c8.62,0,14.99-1.64,19.09-4.92s6.15-7.68,6.15-13.21c0-4.98-1.88-9.2-5.65-12.67-3.77-3.46-11.54-7.56-23.33-12.3-12.15-4.92-20.72-10.54-25.7-16.86-4.98-6.32-7.47-13.91-7.47-22.78,0-11.12,3.95-19.86,11.85-26.24,7.9-6.38,18.5-9.57,31.8-9.57s25.45,2.79,38.09,8.38l-6.92,17.77c-11.85-4.98-22.42-7.47-31.71-7.47-7.05,0-12.39,1.54-16.04,4.6-3.64,3.07-5.47,7.12-5.47,12.16,0,3.46.73,6.42,2.19,8.88,1.46,2.46,3.86,4.78,7.2,6.97,3.34,2.19,9.35,5.07,18.04,8.66,9.78,4.07,16.95,7.87,21.5,11.39,4.56,3.52,7.9,7.5,10.02,11.94,2.13,4.44,3.19,9.66,3.19,15.67Z"/><path class="cls-6" d="m892.82,257.31c0,11.85-4.28,21.14-12.85,27.88-8.56,6.74-20.38,10.11-35.45,10.11s-27.4-2.34-37-7.02v-20.59c6.07,2.86,12.53,5.1,19.36,6.74s13.2,2.46,19.09,2.46c8.62,0,14.99-1.64,19.09-4.92s6.15-7.68,6.15-13.21c0-4.98-1.88-9.2-5.65-12.67-3.77-3.46-11.54-7.56-23.33-12.3-12.15-4.92-20.72-10.54-25.7-16.86-4.98-6.32-7.47-13.91-7.47-22.78,0-11.12,3.95-19.86,11.85-26.24,7.9-6.38,18.5-9.57,31.8-9.57s25.45,2.79,38.09,8.38l-6.92,17.77c-11.85-4.98-22.42-7.47-31.71-7.47-7.05,0-12.39,1.54-16.04,4.6-3.64,3.07-5.47,7.12-5.47,12.16,0,3.46.73,6.42,2.19,8.88,1.46,2.46,3.86,4.78,7.2,6.97,3.34,2.19,9.35,5.07,18.04,8.66,9.78,4.07,16.95,7.87,21.5,11.39,4.56,3.52,7.9,7.5,10.02,11.94,2.13,4.44,3.19,9.66,3.19,15.67Z"/><path class="cls-4" d="m208.39,228.44l23.54,64.49c-17.81,6.5-35.3,5.75-52.49-2.24l28.95-62.24Z"/><path class="cls-4" d="m208.39,228.44l62.24,28.95c-8,17.19-20.9,29.03-38.7,35.53l-23.54-64.49Z"/><path class="cls-3" d="m208.39,228.44l64.49-23.54c6.5,17.81,5.75,35.3-2.24,52.49l-62.24-28.95Z"/><path class="cls-4" d="m208.39,228.44l-62.24-28.95c8-17.19,20.9-29.03,38.7-35.53l23.54,64.49Z"/><path class="cls-4" d="m208.39,228.44l-64.49,23.54c-6.5-17.81-5.75-35.3,2.24-52.49l62.24,28.95Z"/><path class="cls-4" d="m208.39,228.44l-28.95,62.24c-17.19-8-29.03-20.9-35.53-38.7l64.49-23.54Z"/><path class="cls-7" d="m208.39,228.44l28.95-62.24c17.19,8,29.03,20.9,35.53,38.7l-64.49,23.54Z"/><path class="cls-3" d="m208.39,228.44l-23.54-64.49c17.81-6.5,35.3-5.75,52.49,2.24l-28.95,62.24Z"/><circle class="cls-1" cx="209.07" cy="228.76" r="50.69"/><path class="cls-2" d="m67.79,81.9h35.99v47.04c-5.83,1.9-11.33,3.24-16.48,4s-10.42,1.15-15.79,1.15c-13.69,0-24.15-4.02-31.37-12.07-7.22-8.05-10.83-19.6-10.83-34.66s4.19-26.06,12.57-34.26,19.99-12.29,34.85-12.29c9.31,0,18.29,1.86,26.93,5.59l-6.39,15.39c-6.62-3.31-13.51-4.96-20.67-4.96-8.32,0-14.98,2.79-19.98,8.38-5.01,5.59-7.51,13.09-7.51,22.53s2.02,17.37,6.05,22.56c4.03,5.19,9.9,7.79,17.59,7.79,4.01,0,8.09-.41,12.23-1.24v-18.93h-17.19v-16.01Z"/><path class="cls-2" d="m176.37,132.85h-52.25V42.12h52.25v15.76h-33.02v19.92h30.72v15.76h-30.72v23.4h33.02v15.89Z"/><path class="cls-2" d="m274.51,132.85h-24.45l-39.47-68.64h-.56c.79,12.12,1.18,20.77,1.18,25.94v42.7h-17.19V42.12h24.27l39.41,67.96h.43c-.62-11.79-.93-20.13-.93-25.01v-42.95h17.31v90.73Z"/><path class="cls-2" d="m371.36,86.62c0,14.94-4.25,26.38-12.75,34.32-8.5,7.94-20.78,11.92-36.83,11.92h-25.69V42.12h28.49c14.81,0,26.31,3.91,34.5,11.73,8.19,7.82,12.29,18.74,12.29,32.77Zm-19.98.5c0-19.49-8.61-29.23-25.82-29.23h-10.24v59.08h8.25c18.53,0,27.8-9.95,27.8-29.85Z"/><path class="cls-2" d="m441.15,132.85h-52.25V42.12h52.25v15.76h-33.02v19.92h30.72v15.76h-30.72v23.4h33.02v15.89Z"/><path class="cls-2" d="m478.04,98.03v34.82h-19.24V42.12h26.44c12.33,0,21.45,2.24,27.37,6.73,5.92,4.49,8.87,11.31,8.87,20.45,0,5.34-1.47,10.08-4.41,14.24-2.94,4.16-7.1,7.42-12.47,9.77,13.65,20.4,22.55,33.57,26.69,39.53h-21.35l-21.66-34.82h-10.24Zm0-15.64h6.21c6.08,0,10.57-1.01,13.47-3.04,2.9-2.03,4.34-5.21,4.34-9.56s-1.48-7.36-4.44-9.19c-2.96-1.82-7.54-2.73-13.75-2.73h-5.83v24.51Z"/><path class="cls-2" d="m648.46,86.62c0,14.94-4.25,26.38-12.75,34.32-8.5,7.94-20.78,11.92-36.83,11.92h-25.69V42.12h28.48c14.81,0,26.31,3.91,34.5,11.73,8.19,7.82,12.29,18.74,12.29,32.77Zm-19.98.5c0-19.49-8.61-29.23-25.82-29.23h-10.24v59.08h8.25c18.53,0,27.8-9.95,27.8-29.85Z"/><path class="cls-2" d="m721.54,132.85l-6.58-21.6h-33.08l-6.58,21.6h-20.73l32.02-91.1h23.52l32.15,91.1h-20.73Zm-11.17-37.73c-6.08-19.57-9.51-30.64-10.27-33.2-.77-2.56-1.31-4.59-1.64-6.08-1.37,5.3-5.28,18.39-11.73,39.28h23.65Z"/><path class="cls-2" d="m787.41,132.85h-19.24V58.13h-24.64v-16.01h68.51v16.01h-24.64v74.72Z"/><path class="cls-2" d="m880.29,132.85l-6.58-21.6h-33.08l-6.58,21.6h-20.73l32.02-91.1h23.52l32.15,91.1h-20.73Zm-11.17-37.73c-6.08-19.57-9.51-30.64-10.27-33.2-.77-2.56-1.31-4.59-1.64-6.08-1.37,5.3-5.28,18.39-11.73,39.28h23.65Z"/><path class="cls-4" d="m199.71,223.07s-.03.04-.05.06c-.19.2-.37.41-.54.62-9.49,11.04-15.6,22.4-17.07,31.01l-.02.03s.01,0,.02,0c0,0,0,.01,0,.02l.02-.03c8.57-1.73,19.74-8.17,30.49-17.99.21-.17.41-.36.61-.56.02-.02.04-.03.06-.05h0s.05-.05.07-.07c3.64-3.75,3.57-9.73-.16-13.35-3.73-3.62-9.71-3.51-13.35.24-.02.02-.04.05-.07.07h0Z"/><path class="cls-4" d="m218.64,230.59s.03-.04.05-.06c.19-.2.37-.41.54-.62,9.49-11.04,15.6-22.4,17.07-31.01l.02-.03s-.01,0-.02,0c0,0,0-.01,0-.02l-.02.03c-8.57,1.73-19.74,8.17-30.49,17.99-.21.17-.41.36-.61.56-.02.02-.04.03-.06.05h0s-.05.05-.07.07c-3.64,3.75-3.57,9.73.16,13.35,3.73,3.62,9.71,3.51,13.35-.24.02-.02.04-.05.07-.07h0Z"/><path class="cls-1" d="m199.45,218.17l-11.93,9.02,12.69,8.94v-.08s.01.01.02.02l9.34,12.36,8.89-12.62v.02s12.38-9.36,12.38-9.36l-12.08-8.51c-.18-.19-.35-.39-.54-.58-.17-.16-.34-.3-.51-.45l-8.85-11.71-8.38,11.9c-.2.18-.41.36-.6.56-.15.16-.28.32-.42.49Z"/><circle class="cls-6" cx="209.17" cy="226.83" r="4.58"/><path class="cls-6" d="m496.77,333.69c2.21,0,3.94.8,5.17,2.41s1.85,3.86,1.85,6.75-.63,5.17-1.88,6.79c-1.25,1.62-2.99,2.43-5.21,2.43s-3.99-.81-5.23-2.42h-.26l-.69,2.1h-2.82v-24.96h3.77v5.94c0,.44-.02,1.09-.06,1.96s-.08,1.42-.1,1.65h.16c1.2-1.76,2.96-2.65,5.3-2.65Zm-.98,3.08c-1.52,0-2.61.45-3.28,1.34-.67.89-1.01,2.39-1.04,4.48v.26c0,2.16.34,3.72,1.03,4.69.68.97,1.8,1.45,3.35,1.45,1.34,0,2.35-.53,3.04-1.59s1.04-2.59,1.04-4.59c0-4.03-1.38-6.05-4.14-6.05Z"/><path class="cls-6" d="m508.76,334.01h4.11l3.61,10.06c.55,1.43.91,2.78,1.09,4.04h.13c.1-.59.27-1.3.53-2.14.26-.84,1.62-4.83,4.08-11.96h4.07l-7.59,20.1c-1.38,3.69-3.68,5.53-6.9,5.53-.83,0-1.65-.09-2.44-.27v-2.98c.57.13,1.21.19,1.94.19,1.82,0,3.1-1.05,3.83-3.16l.66-1.67-7.12-17.74Z"/><path class="cls-5" d="m565.4,339.99c0,3.82-.95,6.79-2.86,8.91-1.91,2.12-4.61,3.18-8.11,3.18s-6.26-1.05-8.16-3.15-2.85-5.09-2.85-8.96.95-6.84,2.86-8.92,4.63-3.11,8.17-3.11,6.18,1.05,8.08,3.16,2.86,5.07,2.86,8.9Zm-17.9,0c0,2.89.58,5.08,1.75,6.57,1.16,1.49,2.89,2.24,5.18,2.24s4-.74,5.16-2.21c1.16-1.48,1.74-3.67,1.74-6.59s-.58-5.06-1.72-6.54c-1.15-1.49-2.86-2.23-5.14-2.23s-4.04.74-5.21,2.23c-1.17,1.49-1.76,3.67-1.76,6.54Z"/><path class="cls-5" d="m589.26,335.39c0,2.45-.8,4.33-2.41,5.63-1.6,1.31-3.89,1.96-6.85,1.96h-2.44v8.77h-3.83v-23.45h6.75c2.93,0,5.13.6,6.58,1.8,1.46,1.2,2.19,2.96,2.19,5.3Zm-11.69,4.36h2.04c1.97,0,3.41-.34,4.33-1.03.92-.68,1.38-1.75,1.38-3.21,0-1.35-.41-2.35-1.24-3.02-.82-.66-2.11-.99-3.85-.99h-2.66v8.25Z"/><path class="cls-5" d="m610.5,351.75h-13.27v-23.45h13.27v3.24h-9.43v6.38h8.84v3.21h-8.84v7.36h9.43v3.26Z"/><path class="cls-5" d="m638.39,351.75h-4.7l-11.53-18.69h-.13l.08,1.04c.15,1.99.22,3.81.22,5.46v12.19h-3.48v-23.45h4.65l11.5,18.59h.1c-.02-.25-.06-1.14-.13-2.69-.07-1.55-.1-2.75-.1-3.62v-12.29h3.51v23.45Z"/><path class="cls-5" d="m678.76,339.8c0,3.87-1.08,6.83-3.23,8.88-2.15,2.05-5.25,3.07-9.29,3.07h-6.56v-23.45h7.25c3.73,0,6.64,1.01,8.71,3.02,2.07,2.01,3.11,4.84,3.11,8.49Zm-4.04.13c0-5.61-2.63-8.42-7.88-8.42h-3.32v17.02h2.73c5.65,0,8.47-2.87,8.47-8.6Z"/><path class="cls-5" d="m701.64,351.75l-2.34-6.51h-8.97l-2.29,6.51h-4.04l8.77-23.55h4.17l8.78,23.55h-4.07Zm-3.35-9.82l-2.2-6.39c-.16-.43-.38-1.1-.67-2.02-.28-.92-.48-1.59-.59-2.02-.29,1.31-.71,2.75-1.27,4.31l-2.12,6.11h6.83Z"/><path class="cls-5" d="m720.19,351.75h-3.83v-20.17h-6.9v-3.29h17.63v3.29h-6.9v20.17Z"/><path class="cls-5" d="m748.52,351.75l-2.34-6.51h-8.97l-2.29,6.51h-4.04l8.77-23.55h4.17l8.78,23.55h-4.07Zm-3.35-9.82l-2.2-6.39c-.16-.43-.38-1.1-.67-2.02-.28-.92-.48-1.59-.59-2.02-.29,1.31-.71,2.75-1.27,4.31l-2.12,6.11h6.83Z"/><path class="cls-5" d="m792.44,351.75h-4.17l-3.98-13.99c-.17-.61-.38-1.49-.64-2.64-.26-1.15-.41-1.95-.47-2.4-.11.68-.28,1.57-.52,2.66-.24,1.09-.44,1.9-.6,2.44l-3.88,13.92h-4.17l-3.03-11.74-3.08-11.71h3.92l3.35,13.67c.52,2.19.9,4.13,1.12,5.81.12-.91.29-1.93.53-3.05.24-1.12.45-2.03.64-2.73l3.82-13.7h3.8l3.91,13.76c.38,1.27.77,3.18,1.19,5.71.16-1.53.55-3.48,1.16-5.84l3.34-13.64h3.88l-6.11,23.45Z"/><path class="cls-5" d="m819.71,351.75l-2.34-6.51h-8.97l-2.29,6.51h-4.04l8.77-23.55h4.17l8.78,23.55h-4.07Zm-3.35-9.82l-2.2-6.39c-.16-.43-.38-1.1-.67-2.02-.28-.92-.48-1.59-.59-2.02-.29,1.31-.71,2.75-1.27,4.31l-2.12,6.11h6.83Z"/><path class="cls-5" d="m838.27,351.75h-3.83v-20.17h-6.9v-3.29h17.63v3.29h-6.9v20.17Z"/><path class="cls-5" d="m862.03,331.25c-2.2,0-3.94.78-5.2,2.34s-1.89,3.72-1.89,6.46.61,5.05,1.82,6.53c1.21,1.48,2.97,2.21,5.27,2.21,1,0,1.96-.1,2.89-.3.93-.2,1.9-.45,2.9-.76v3.29c-1.84.7-3.93,1.04-6.26,1.04-3.43,0-6.07-1.04-7.91-3.12-1.84-2.08-2.76-5.06-2.76-8.93,0-2.44.45-4.57,1.34-6.4.89-1.83,2.18-3.23,3.87-4.2,1.69-.97,3.67-1.46,5.95-1.46,2.4,0,4.61.5,6.64,1.51l-1.38,3.19c-.79-.37-1.63-.7-2.51-.99s-1.81-.43-2.78-.43Z"/><path class="cls-5" d="m894.65,351.75h-3.85v-10.57h-10.81v10.57h-3.83v-23.45h3.83v9.59h10.81v-9.59h3.85v23.45Z"/><path class="cls-6" d="m95.96,177.03c-12.52,0-22.36,4.44-29.52,13.3-7.17,8.87-10.75,21.11-10.75,36.72s3.45,28.7,10.34,37.09c6.89,8.38,16.87,12.58,29.93,12.58,5.65,0,11.12-.56,16.4-1.69,5.28-1.12,10.78-2.57,16.49-4.33v18.68c-10.45,3.95-22.29,5.92-35.54,5.92-19.5,0-34.47-5.91-44.92-17.72-10.45-11.81-15.67-28.72-15.67-50.71,0-13.85,2.54-25.97,7.61-36.36,5.07-10.39,12.41-18.34,22.01-23.87,9.6-5.53,20.87-8.29,33.8-8.29,13.61,0,26.18,2.85,37.72,8.56l-7.84,18.13c-4.5-2.13-9.25-3.99-14.26-5.6s-10.28-2.42-15.81-2.42Z"/><path class="cls-6" d="m360.58,293.48l-38.63-111.26h-.73c1.03,16.52,1.55,32.01,1.55,46.47v64.79h-19.77v-133.22h30.71l37,105.97h.55l38.09-105.97h30.8v133.22h-20.96v-65.88c0-6.62.17-15.25.5-25.88.33-10.63.62-17.07.86-19.32h-.73l-40,111.08h-19.23Z"/><path class="cls-6" d="m563.41,200.54c0,13.91-4.56,24.57-13.67,31.98-9.11,7.41-22.08,11.12-38.91,11.12h-13.85v49.84h-21.78v-133.22h38.36c16.64,0,29.11,3.4,37.4,10.21,8.29,6.8,12.44,16.83,12.44,30.07Zm-66.43,24.79h11.57c11.18,0,19.38-1.94,24.6-5.83,5.22-3.89,7.84-9.96,7.84-18.22,0-7.65-2.34-13.36-7.02-17.13-4.68-3.77-11.97-5.65-21.87-5.65h-15.12v46.84Z"/><path class="cls-6" d="m672.67,293.48l-13.3-37h-50.94l-13.03,37h-22.96l49.84-133.77h23.69l49.84,133.77h-23.15Zm-19.04-55.77l-12.48-36.27c-.91-2.43-2.17-6.26-3.78-11.48-1.61-5.22-2.72-9.05-3.33-11.48-1.64,7.47-4.04,15.64-7.2,24.51l-12.03,34.72h38.82Z"/><path class="cls-6" d="m790.21,257.31c0,11.84-4.28,21.14-12.85,27.88-8.56,6.74-20.38,10.12-35.45,10.12s-27.4-2.34-37-7.02v-20.59c6.07,2.86,12.53,5.1,19.36,6.74,6.84,1.64,13.2,2.46,19.09,2.46,8.62,0,14.99-1.64,19.09-4.92,4.1-3.28,6.15-7.68,6.15-13.21,0-4.98-1.88-9.2-5.65-12.67-3.77-3.46-11.54-7.56-23.33-12.3-12.15-4.92-20.71-10.54-25.7-16.86-4.98-6.32-7.47-13.91-7.47-22.78,0-11.12,3.95-19.86,11.85-26.24,7.9-6.38,18.5-9.57,31.8-9.57s25.45,2.79,38.09,8.38l-6.93,17.77c-11.85-4.98-22.42-7.47-31.71-7.47-7.05,0-12.39,1.54-16.04,4.6-3.65,3.07-5.47,7.12-5.47,12.17,0,3.46.73,6.42,2.19,8.88,1.46,2.46,3.86,4.78,7.2,6.97,3.34,2.19,9.35,5.07,18.04,8.66,9.78,4.07,16.95,7.87,21.51,11.39,4.56,3.52,7.9,7.5,10.02,11.94,2.12,4.44,3.19,9.66,3.19,15.67Z"/><path class="cls-6" d="m892.82,257.31c0,11.84-4.28,21.14-12.85,27.88-8.56,6.74-20.38,10.12-35.45,10.12s-27.4-2.34-37-7.02v-20.59c6.07,2.86,12.53,5.1,19.36,6.74,6.84,1.64,13.2,2.46,19.09,2.46,8.62,0,14.99-1.64,19.09-4.92,4.1-3.28,6.15-7.68,6.15-13.21,0-4.98-1.88-9.2-5.65-12.67-3.77-3.46-11.54-7.56-23.33-12.3-12.15-4.92-20.71-10.54-25.7-16.86-4.98-6.32-7.47-13.91-7.47-22.78,0-11.12,3.95-19.86,11.85-26.24,7.9-6.38,18.5-9.57,31.8-9.57s25.45,2.79,38.09,8.38l-6.93,17.77c-11.85-4.98-22.42-7.47-31.71-7.47-7.05,0-12.39,1.54-16.04,4.6-3.65,3.07-5.47,7.12-5.47,12.17,0,3.46.73,6.42,2.19,8.88,1.46,2.46,3.86,4.78,7.2,6.97,3.34,2.19,9.35,5.07,18.04,8.66,9.78,4.07,16.95,7.87,21.51,11.39,4.56,3.52,7.9,7.5,10.02,11.94,2.12,4.44,3.19,9.66,3.19,15.67Z"/><path class="cls-2" d="m67.79,81.9h35.99v47.04c-5.83,1.9-11.33,3.24-16.48,4-5.15.76-10.42,1.15-15.79,1.15-13.7,0-24.15-4.02-31.37-12.07-7.22-8.05-10.83-19.6-10.83-34.66s4.19-26.07,12.57-34.26c8.38-8.19,19.99-12.29,34.85-12.29,9.31,0,18.29,1.86,26.93,5.59l-6.39,15.39c-6.62-3.31-13.51-4.97-20.67-4.97-8.32,0-14.98,2.79-19.98,8.38-5.01,5.59-7.51,13.1-7.51,22.53s2.02,17.37,6.05,22.56,9.9,7.79,17.59,7.79c4.01,0,8.09-.41,12.23-1.24v-18.93h-17.19v-16.01Z"/><path class="cls-2" d="m176.37,132.85h-52.25V42.12h52.25v15.76h-33.02v19.92h30.72v15.76h-30.72v23.4h33.02v15.89Z"/><path class="cls-2" d="m274.52,132.85h-24.45l-39.47-68.64h-.56c.79,12.12,1.18,20.77,1.18,25.94v42.7h-17.19V42.12h24.26l39.41,67.96h.43c-.62-11.79-.93-20.13-.93-25.01v-42.94h17.31v90.73Z"/><path class="cls-2" d="m371.36,86.61c0,14.94-4.25,26.37-12.75,34.32-8.5,7.94-20.78,11.92-36.83,11.92h-25.69V42.12h28.49c14.81,0,26.31,3.91,34.51,11.73,8.19,7.82,12.29,18.74,12.29,32.77Zm-19.98.5c0-19.49-8.61-29.23-25.82-29.23h-10.24v59.08h8.25c18.54,0,27.8-9.95,27.8-29.85Z"/><path class="cls-2" d="m441.15,132.85h-52.25V42.12h52.25v15.76h-33.02v19.92h30.72v15.76h-30.72v23.4h33.02v15.89Z"/><path class="cls-2" d="m478.04,98.03v34.82h-19.24V42.12h26.44c12.33,0,21.45,2.24,27.37,6.73,5.92,4.49,8.88,11.31,8.88,20.45,0,5.34-1.47,10.08-4.41,14.24-2.94,4.16-7.1,7.42-12.47,9.77,13.65,20.4,22.55,33.57,26.69,39.53h-21.35l-21.66-34.82h-10.24Zm0-15.64h6.21c6.08,0,10.57-1.01,13.47-3.04,2.9-2.03,4.34-5.21,4.34-9.56s-1.48-7.36-4.44-9.19c-2.96-1.82-7.54-2.73-13.75-2.73h-5.83v24.51Z"/><path class="cls-2" d="m648.46,86.61c0,14.94-4.25,26.37-12.75,34.32-8.5,7.94-20.78,11.92-36.83,11.92h-25.69V42.12h28.49c14.81,0,26.31,3.91,34.51,11.73,8.19,7.82,12.29,18.74,12.29,32.77Zm-19.98.5c0-19.49-8.61-29.23-25.82-29.23h-10.24v59.08h8.25c18.54,0,27.8-9.95,27.8-29.85Z"/><path class="cls-2" d="m721.54,132.85l-6.58-21.6h-33.08l-6.58,21.6h-20.73l32.02-91.1h23.52l32.15,91.1h-20.73Zm-11.17-37.73c-6.08-19.57-9.51-30.64-10.27-33.2-.77-2.57-1.31-4.59-1.64-6.08-1.37,5.3-5.28,18.39-11.73,39.28h23.65Z"/><path class="cls-2" d="m787.42,132.85h-19.24V58.13h-24.64v-16.01h68.51v16.01h-24.64v74.72Z"/><path class="cls-2" d="m880.29,132.85l-6.58-21.6h-33.08l-6.58,21.6h-20.73l32.02-91.1h23.52l32.15,91.1h-20.73Zm-11.17-37.73c-6.08-19.57-9.51-30.64-10.27-33.2s-1.31-4.59-1.64-6.08c-1.37,5.3-5.28,18.39-11.73,39.28h23.65Z"/><path class="cls-4" d="m208.39,228.44l23.54,64.49c-17.81,6.5-35.3,5.75-52.49-2.24l28.95-62.24Z"/><path class="cls-4" d="m208.39,228.44l62.24,28.95c-8,17.19-20.9,29.03-38.7,35.53l-23.54-64.49Z"/><path class="cls-3" d="m208.39,228.44l64.49-23.54c6.5,17.81,5.75,35.3-2.24,52.49l-62.24-28.95Z"/><path class="cls-4" d="m208.39,228.44l-62.24-28.95c8-17.19,20.9-29.03,38.7-35.53l23.54,64.49Z"/><path class="cls-4" d="m208.39,228.44l-64.49,23.54c-6.5-17.81-5.75-35.3,2.24-52.49l62.24,28.95Z"/><path class="cls-4" d="m208.39,228.44l-28.95,62.24c-17.19-8-29.03-20.9-35.53-38.7l64.49-23.54Z"/><path class="cls-7" d="m208.39,228.44l28.95-62.24c17.19,8,29.03,20.9,35.53,38.7l-64.49,23.54Z"/><path class="cls-3" d="m208.39,228.44l-23.54-64.49c17.81-6.5,35.3-5.75,52.49,2.24l-28.95,62.24Z"/><circle class="cls-1" cx="209.07" cy="228.76" r="50.69"/><path class="cls-4" d="m199.71,223.07s-.03.04-.05.06c-.19.2-.37.41-.54.62-9.49,11.04-15.6,22.4-17.07,31.01l-.02.03s.01,0,.02,0c0,0,0,.01,0,.02l.02-.03c8.57-1.73,19.74-8.17,30.49-17.99.21-.17.41-.36.61-.56.02-.02.04-.03.06-.05h0s.05-.05.07-.07c3.64-3.75,3.57-9.73-.16-13.35-3.73-3.62-9.71-3.51-13.35.24-.02.02-.04.05-.07.07h0Z"/><path class="cls-4" d="m218.64,230.59s.03-.04.05-.06c.19-.2.37-.41.54-.62,9.49-11.04,15.6-22.4,17.07-31.01l.02-.03s-.01,0-.02,0c0,0,0-.01,0-.02l-.02.03c-8.57,1.73-19.74,8.17-30.49,17.99-.21.17-.41.36-.61.56-.02.02-.04.03-.06.05h0s-.05.05-.07.07c-3.64,3.75-3.57,9.73.16,13.35,3.73,3.62,9.71,3.51,13.35-.24.02-.02.04-.05.07-.07h0Z"/><path class="cls-1" d="m199.45,218.17l-11.93,9.02,12.69,8.94v-.08s.01.01.02.02l9.34,12.36,8.89-12.62v.02s12.38-9.36,12.38-9.36l-12.08-8.51c-.18-.19-.35-.39-.54-.58-.17-.16-.34-.3-.51-.45l-8.85-11.71-8.38,11.9c-.2.18-.41.36-.6.56-.15.16-.28.32-.42.49Z"/><circle class="cls-6" cx="209.17" cy="226.83" r="4.58"/></svg>