<?xml version="1.0" encoding="UTF-8"?><svg id="a" xmlns="http://www.w3.org/2000/svg" viewBox="0 0 324.51 313.28"><defs><style>.b{fill:#ff8d03;}.c{fill:#fff;}.d{fill:#afeeee;}.e{fill:#e3dec8;}.f{fill:khaki;}.g{fill:#4fc3eb;}</style></defs><ellipse class="c" cx="162.26" cy="156.64" rx="162.26" ry="156.64"/><g><ellipse class="c" cx="162.26" cy="156.45" rx="147.32" ry="142.3"/><polygon class="g" points="162.67 226.98 161.69 226.98 161.46 226.98 160.49 226.98 108.04 243.36 108.04 243.99 123.1 248.23 123.12 248.16 161.32 257.79 197.94 248.83 215.11 243.99 215.11 243.36 162.67 226.98"/><path class="d" d="M240.47,248.92l-.07-.05,47.96-18.76c-17.26,27.11-43.71,48.34-75.26,59.74l27.37-40.93Z"/><polygon class="f" points="124.1 258.23 83.28 248.62 83.24 248.8 109.16 288.49 111.44 289.03 161.35 275.16 161.36 275.09 124.1 258.23"/><path class="d" d="M83.43,248.73l.07-.05-47.96-18.76c17.26,27.11,43.71,48.34,75.26,59.74l-27.37-40.93Z"/><polygon class="e" points="184.21 219.25 161.72 186.8 138.8 219.1 158.17 224.77 157.48 224.77 161.63 226.66 165.78 224.77 165.72 224.77 184.21 219.36 184.21 219.25"/><polygon class="d" points="109.52 112.52 71.78 125.83 139.99 125.83 109.52 112.52"/><polygon class="f" points="133.87 103.98 140.07 125.87 140.85 126.32 157.23 97.95 155.48 96.94 133.87 103.98"/><polygon class="g" points="156.79 97.11 154.89 95.1 154.84 94.94 120.52 53.86 120.06 53.99 133.88 104.81 154.45 97.67 156.79 97.11"/><path class="g" d="M162.26,298.47c17.91,0,35.08-3,51.01-8.5l-50.4-14.48h-1.73l-50.12,14.4c15.99,5.55,33.25,8.58,51.25,8.58Z"/><path class="g" d="M214.7,23.46c-15.28-5.6-31.8-8.76-49.04-8.99v21.44l49.04-12.45Z"/><path class="f" d="M287.05,82.34c-16.73-26.75-42.38-47.69-72.97-58.94l24.66,39.7,48.31,19.23Z"/><path class="d" d="M271.49,125.71h33.5c-3.36-15.96-9.55-30.92-18.01-44.39l-15.49,44.39Z"/><polygon class="f" points="165.83 36.69 165.83 52.77 201.75 52.77 165.83 36.69"/><polygon class="g" points="165.83 53.19 189.83 53.09 190 95.32 165.83 53.19"/><polygon class="d" points="189.6 96.1 165.83 53.16 165.83 125.94 189.6 96.1"/><polygon class="g" points="189.42 96.6 166.24 125.71 271.6 125.71 189.42 96.6"/><polygon class="e" points="271.6 125.4 253.16 95.88 190.34 96.57 271.6 125.4"/><polygon class="d" points="201.95 52.78 240.3 64.09 213.52 24.15 165.41 36.16 201.95 52.78"/><polygon class="g" points="271.08 123.9 271.99 123.9 286.15 82.13 241.24 64.17 240.06 64.17 240.06 65.66 253.43 96.6 271.08 123.9"/><path class="c" d="M108.49,24.02c15.28-5.6,31.8-8.76,49.04-8.99v21.44l-49.04-12.45Z"/><path class="d" d="M36.33,82.93c16.7-26.71,42.29-47.61,72.82-58.84l-24.61,39.64-48.21,19.2Z"/><path class="f" d="M51.71,125.96H18.21c3.36-15.85,9.55-30.72,18.01-44.1l15.49,44.1Z"/><polygon class="f" points="157.36 37.24 157.36 53.32 121.44 53.32 157.36 37.24"/><polygon class="g" points="155.16 37.19 155.94 36.83 109.29 24.98 83.32 64.39 84.06 64.16 83.81 64.54 120.97 53.59 156.39 37.5 155.16 37.19"/><polygon class="g" points="52.14 124.45 51.22 124.45 37.04 82.42 82.01 64.34 83.19 64.34 83.19 65.84 69.81 96.98 52.14 124.45"/><polygon class="d" points="71.41 95.41 51.6 126.09 71.41 126.09 71.41 95.41"/><polygon class="e" points="109.92 112.62 71.5 95.55 71.5 125.93 109.92 112.62"/><polygon class="d" points="156.73 96.9 157.58 96.9 157.58 53.79 121.07 53.79 156.73 96.9"/><polygon class="g" points="134.19 105.07 133.59 104.81 110.67 112.42 110.52 112.78 139.6 125.39 139.76 125.02 134.19 105.07"/><path class="g" d="M51.11,186.16H17.61c3.36,15.85,9.55,30.72,18.01,44.1l15.49-44.1Z"/><polygon class="e" points="51.55 186.51 50.63 186.51 36.44 229.7 81.45 248.27 82.63 248.27 82.63 246.73 69.23 214.74 51.55 186.51"/><polygon class="g" points="70.64 215.82 51.5 186.16 70.64 186.16 70.64 215.82"/><polygon class="g" points="161.24 187.49 161.24 185.88 138.51 185.88 138.51 219.33 138.58 219.51 161.24 187.49"/><polygon class="d" points="107.48 244.38 72.06 185.88 71.11 185.88 71.11 216.23 107.48 244.38"/><polygon class="c" points="125.41 258.43 70.74 215.69 70.14 216.46 84.04 248.52 125.41 258.43"/><polygon class="f" points="108.34 243.15 160.17 226.55 159.88 225.54 138.43 218.81 108.34 243.15"/><path class="g" d="M272.11,186.16h33.5c-3.36,15.85-9.55,30.72-18.01,44.1l-15.49-44.1Z"/><polygon class="e" points="271.68 186.71 272.6 186.71 286.78 229.83 241.81 248.37 240.63 248.37 240.63 246.83 254.01 214.89 271.68 186.71"/><polygon class="g" points="252.57 216.45 272.49 186.16 252.57 186.16 252.57 216.45"/><polygon class="g" points="161.98 187.49 161.98 185.88 184.71 185.88 184.71 219.33 184.63 219.51 161.98 187.49"/><polygon class="f" points="215.74 244.73 251.68 185.88 252.64 185.88 252.64 216.41 215.74 244.73"/><polygon class="c" points="197.81 258.43 252.48 215.69 253.08 216.46 239.18 248.52 197.81 258.43"/><polygon class="f" points="198.99 258.44 239.64 248.88 239.68 249.06 213.87 288.57 211.59 289.1 161.9 275.3 161.89 275.23 198.99 258.44"/><polygon class="c" points="215.59 242.98 162.09 226.81 162.39 225.82 184.53 219.27 215.59 242.98"/><polygon class="d" points="161.83 258.26 161.68 258.26 125.62 258.26 125.62 258.4 161.43 274.98 161.68 274.98 161.83 274.98 162.08 274.98 197.9 258.4 197.9 258.26 161.83 258.26"/><path d="M83.71,64.62l.04-.09-.08-.03-.31-.79-46.55,18.21,.28,.72-.49,.17,14.72,43.15,.54-.18,.19,.12,.15-.24,.07-.02-.02-.06,19.27-29.99h.02l12.17-30.93h.02v-.03Zm-13.04,30.4l-18.85,29.34-14.22-41.69,44.82-17.54-11.75,29.88Z"/><rect x="72.16" y="44.13" width="47.68" height="1" transform="translate(6.55 101.26) rotate(-57.27)"/><rect x="81.96" y="58.41" width="39.65" height="1" transform="translate(-12.52 31.24) rotate(-16.45)"/><rect x="118.74" y="44.99" width="40.12" height="1" transform="translate(-6.66 58.76) rotate(-23.36)"/><g><rect x="138.43" y="35.2" width="1" height="36.83" transform="translate(84.75 192.32) rotate(-89.77)"/><rect x="138.59" y="47.1" width="1" height="57.08" transform="translate(-16.03 107.37) rotate(-40.1)"/><rect x="129.68" y="52.4" width="1" height="74.44" transform="translate(-19.19 37.96) rotate(-15.47)"/></g><rect x="69.28" y="110.92" width="90.73" height="1" transform="translate(-29.37 42.01) rotate(-18.45)"/><rect x="105.25" y="72.81" width="1" height="75.32" transform="translate(-37.67 163.56) rotate(-66.56)"/><rect x="56.3" y="109.97" width="30.3" height="1" transform="translate(-39.44 181.27) rotate(-89.66)"/><rect x="165.16" y="14.64" width="1" height="110.81"/><rect x="165.16" y="125.29" width="140.53" height="1"/><polygon points="158.1 97.6 158.03 37.15 158 37.15 108.25 24.41 108 25.38 157.03 37.94 157.1 97.33 140.39 125.31 18.68 125.31 18.68 126.31 140.89 126.31 140.89 126.32 140.96 126.32 140.96 126.31 140.97 126.31 140.98 126.29 140.98 126.28 158.09 97.62 158.05 97.6 158.1 97.6"/><rect x="165.07" y="29.44" width="50.46" height="1" transform="translate(-1.55 47.37) rotate(-14.13)"/><rect x="226.4" y="20.09" width="1" height="47.85" transform="translate(12.4 130.11) rotate(-32.85)"/><rect x="183.5" y="24.33" width="1" height="40.37" transform="translate(66.74 193.13) rotate(-65.33)"/><rect x="220.52" y="38.55" width="1" height="39.67" transform="translate(102.43 253.82) rotate(-73.55)"/><rect x="165.66" y="52.61" width="37.32" height="1"/><rect x="245.76" y="62.24" width="1" height="35.18" transform="translate(-11.82 100.19) rotate(-22.47)"/><rect x="261.84" y="93.27" width="1" height="34.82" transform="translate(-18.37 158.41) rotate(-32.53)"/><rect x="262.91" y="47.66" width="1" height="50.65" transform="translate(100.2 292.24) rotate(-68.82)"/><rect x="256.23" y="103.16" width="45.59" height="1" transform="translate(89.6 333.27) rotate(-70.86)"/><rect x="159.06" y="110.23" width="38.23" height="1" transform="translate(-20.22 178.9) rotate(-50.82)"/><rect x="177.76" y="50.14" width="1" height="49.68" transform="translate(-13.96 96.2) rotate(-29.11)"/><rect x="230.27" y="67.83" width="1" height="86.38" transform="translate(48.67 291.08) rotate(-70.37)"/><rect x="190.26" y="95.67" width="62.89" height="1"/><rect x="189.67" y="53.62" width="1" height="42.55"/><rect x="138" y="185.38" width="46.55" height="1"/><rect x="60.33" y="183.49" width="1" height="35.41" transform="translate(-98.54 64.15) rotate(-32.49)"/><rect x="138.01" y="186.34" width="1" height="33.11"/><rect x="18.43" y="185.38" width="53.45" height="1"/><rect x="20.64" y="206.99" width="46.29" height="1" transform="translate(-166.9 183.42) rotate(-71.57)"/><rect x="76.16" y="214.64" width="1" height="34.78" transform="translate(-80.56 44.96) rotate(-21.76)"/><rect x="58.98" y="213.63" width="1" height="50.89" transform="translate(-184.81 207.2) rotate(-68.59)"/><rect x="96.43" y="244.05" width="1" height="49.61" transform="translate(-133.88 100.32) rotate(-34.04)"/><rect x="109.32" y="281.87" width="53.62" height="1" transform="translate(-70.63 46.76) rotate(-15.53)"/><rect x="142.11" y="245.26" width="1" height="42.46" transform="translate(-159 286.1) rotate(-65.57)"/><rect x="102.57" y="232.09" width="1" height="41.7" transform="translate(-166.74 295.46) rotate(-76.79)"/><rect x="97.03" y="202.47" width="1" height="68.56" transform="translate(-149.65 169.96) rotate(-52.49)"/><rect x="55.7" y="200.4" width="30.55" height="1" transform="translate(-130.47 270.31) rotate(-89.55)"/><rect x="88.95" y="180.57" width="1" height="68.74" transform="translate(-99.32 78.69) rotate(-31.58)"/><rect x="103.21" y="230.72" width="40.17" height="1" transform="translate(-116.69 126) rotate(-38.26)"/><rect x="130.02" y="202.08" width="40.5" height="1" transform="translate(-101.91 207.46) rotate(-54.54)"/><rect x="104.95" y="231.14" width="81.6" height="1" transform="translate(-63.28 54.99) rotate(-17.62)"/><rect x="134.12" y="222.47" width="1" height="56.68" transform="translate(-141.19 321.23) rotate(-76.1)"/><rect x="123.28" y="257.21" width="77.15" height="1"/><rect x="251.63" y="185.47" width="54.63" height="1"/><rect x="279.35" y="184.42" width="1" height="47.27" transform="translate(-51.33 98.85) rotate(-18.38)"/><rect x="229.45" y="231.62" width="34.78" height="1" transform="translate(-60.25 375.32) rotate(-68.24)"/><rect x="238.57" y="238.67" width="50.89" height="1" transform="translate(-69.08 112.86) rotate(-21.41)"/><rect x="201.77" y="268.45" width="49.61" height="1" transform="translate(-123.15 305.82) rotate(-55.91)"/><rect x="186.81" y="255.51" width="1" height="53.77" transform="translate(-135.07 386.81) rotate(-74.39)"/><rect x="159.47" y="266.08" width="42.65" height="1" transform="translate(-93.73 98.09) rotate(-24.31)"/><rect x="199.59" y="252.54" width="41.7" height="1" transform="translate(-52.03 57.12) rotate(-13.22)"/><rect x="192.09" y="236.42" width="68.26" height="1" transform="translate(-97.79 188.68) rotate(-37.86)"/><rect x="252.02" y="185.71" width="1" height="30.55" transform="translate(-1.67 2.11) rotate(-.48)"/><rect x="199.69" y="214.54" width="68.74" height="1" transform="translate(-71.71 301.83) rotate(-58.42)"/><rect x="199.7" y="211.22" width="1" height="40.17" transform="translate(-105.4 245.12) rotate(-51.71)"/><rect x="172.55" y="182.52" width="1" height="40.22" transform="translate(-85.13 136.71) rotate(-35.18)"/><polygon points="216.5 244.53 138.62 219.54 138.92 218.59 216.8 243.58 216.5 244.53"/><rect x="160.8" y="250.36" width="56.42" height="1" transform="translate(-54.73 52.75) rotate(-13.9)"/><rect x="244.68" y="200.76" width="36.02" height="1" transform="translate(-48.15 314.79) rotate(-57.52)"/><rect x="184.31" y="185.41" width="1" height="33.92"/><path class="b" d="M39.97,155.75c0,6.26-.88,11.07-2.64,14.43-1.76,3.36-4.28,5.04-7.56,5.04s-5.8-1.68-7.56-5.04c-1.76-3.36-2.64-8.19-2.64-14.48s.88-11.1,2.65-14.42c1.76-3.32,4.29-4.98,7.59-4.98s5.81,1.67,7.56,5.02c1.74,3.34,2.62,8.15,2.62,14.43Zm-15.64,0c0,4.22,.45,7.4,1.36,9.54,.91,2.14,2.27,3.21,4.08,3.21,3.63,0,5.44-4.25,5.44-12.75s-1.8-12.77-5.41-12.77c-1.81,0-3.17,1.07-4.09,3.22s-1.38,5.33-1.38,9.55Z"/><path class="b" d="M59.22,148.69c0,4.07-.72,7.18-2.16,9.33-1.44,2.16-3.49,3.23-6.15,3.23h-1.95v13.45h-4.54v-37.8h6.85c2.6,0,4.58,.99,5.93,2.96,1.35,1.97,2.03,4.92,2.03,8.83Zm-10.26,6h1.5c1.4,0,2.44-.49,3.14-1.46,.69-.97,1.04-2.39,1.04-4.25s-.29-3.27-.87-4.16c-.58-.9-1.49-1.34-2.73-1.34h-2.07v11.22Z"/><path class="b" d="M75.61,174.7h-12.34v-37.8h12.34v6.57h-7.8v8.3h7.26v6.57h-7.26v9.75h7.8v6.62Z"/><path class="b" d="M99.1,174.7h-5.78l-9.32-28.6h-.13c.19,5.05,.28,8.65,.28,10.81v17.79h-4.06v-37.8h5.73l9.31,28.31h.1c-.15-4.91-.22-8.39-.22-10.42v-17.89h4.09v37.8Z"/><path class="b" d="M130.07,155.44c0,6.22-1,10.99-3.01,14.3-2.01,3.31-4.91,4.96-8.7,4.96h-6.07v-37.8h6.73c3.5,0,6.22,1.63,8.15,4.89,1.93,3.26,2.9,7.81,2.9,13.65Zm-4.72,.21c0-8.12-2.03-12.18-6.1-12.18h-2.42v24.62h1.95c4.38,0,6.57-4.15,6.57-12.44Z"/><path class="b" d="M147.63,174.7l-1.55-9h-7.81l-1.55,9h-4.9l7.56-37.96h5.56l7.59,37.96h-4.9Zm-2.64-15.72c-1.44-8.15-2.25-12.76-2.43-13.83-.18-1.07-.31-1.91-.39-2.53-.32,2.21-1.25,7.66-2.77,16.37h5.58Z"/><path class="b" d="M163.5,174.7h-4.54v-31.13h-5.82v-6.67h16.18v6.67h-5.82v31.13Z"/><path class="b" d="M185.73,174.7l-1.55-9h-7.81l-1.55,9h-4.9l7.56-37.96h5.56l7.59,37.96h-4.9Zm-2.64-15.72c-1.44-8.15-2.25-12.76-2.43-13.83-.18-1.07-.31-1.91-.39-2.53-.32,2.21-1.25,7.66-2.77,16.37h5.58Z"/><path class="b" d="M222,174.7h-5.17l-2.9-19.86c-.11-.71-.29-2.17-.55-4.38s-.41-3.7-.45-4.46c-.06,.93-.21,2.43-.44,4.49s-.42,3.53-.54,4.41l-2.89,19.81h-5.16l-5.47-37.8h4.47l2.74,20.63c.48,3.81,.83,7.11,1.04,9.9,.06-.98,.19-2.5,.4-4.56,.21-2.06,.41-3.66,.59-4.8l3.12-21.18h4.29l3.12,21.18c.14,.95,.31,2.4,.51,4.34,.21,1.95,.36,3.62,.47,5.02,.1-1.34,.25-3.02,.47-5.03,.21-2.01,.41-3.63,.59-4.87l2.73-20.63h4.47l-5.45,37.8Z"/><path class="b" d="M243.27,174.7l-1.55-9h-7.81l-1.55,9h-4.9l7.56-37.96h5.56l7.59,37.96h-4.9Zm-2.64-15.72c-1.44-8.15-2.25-12.76-2.43-13.83-.18-1.07-.31-1.91-.39-2.53-.32,2.21-1.25,7.66-2.77,16.37h5.58Z"/><path class="b" d="M259.13,174.7h-4.54v-31.13h-5.82v-6.67h16.18v6.67h-5.82v31.13Z"/><path class="b" d="M277.36,143.03c-1.71,0-3.03,1.13-3.97,3.4s-1.41,5.43-1.41,9.48c0,8.43,1.79,12.64,5.38,12.64,1.5,0,3.33-.66,5.47-1.99v6.72c-1.76,1.29-3.72,1.94-5.89,1.94-3.12,0-5.5-1.67-7.15-5-1.65-3.33-2.48-8.12-2.48-14.36,0-3.93,.41-7.37,1.22-10.33,.81-2.96,1.98-5.22,3.5-6.8,1.52-1.58,3.3-2.37,5.34-2.37s4.17,.89,6.27,2.66l-1.47,6.52c-.8-.67-1.61-1.26-2.42-1.76s-1.61-.75-2.39-.75Z"/><path class="b" d="M304.95,174.7h-4.53v-16.32h-8.49v16.32h-4.54v-37.8h4.54v14.82h8.49v-14.82h4.53v37.8Z"/><path d="M162.26,299.4c-81.51,0-147.82-64.04-147.82-142.76S80.75,13.89,162.26,13.89s147.82,64.04,147.82,142.76-66.31,142.76-147.82,142.76Zm0-284.51C81.3,14.89,15.44,78.48,15.44,156.64s65.86,141.76,146.82,141.76,146.82-63.59,146.82-141.76S243.21,14.89,162.26,14.89Z"/></g></svg>